<svg id="Layer_1" data-name="Layer 1" xmlns="http://www.w3.org/2000/svg" xmlns:xlink="http://www.w3.org/1999/xlink" viewBox="0 0 15 15"><defs><style>.cls-1{fill:url(#linear-gradient);}.cls-2{fill:url(#linear-gradient-2);}.cls-3{fill:url(#linear-gradient-3);}.cls-4{fill:url(#linear-gradient-4);}.cls-5{fill:url(#linear-gradient-5);}.cls-6{fill:url(#linear-gradient-6);}.cls-7{fill:url(#linear-gradient-7);}.cls-8{fill:url(#linear-gradient-8);}</style><linearGradient id="linear-gradient" x1="0.56" y1="4.4" x2="11.84" y2="11.78" gradientUnits="userSpaceOnUse"><stop offset="0" stop-color="#4193af"/><stop offset="1" stop-color="#4999bd"/></linearGradient><linearGradient id="linear-gradient-2" x1="-0.84" y1="6.54" x2="10.44" y2="13.92" xlink:href="#linear-gradient"/><linearGradient id="linear-gradient-3" x1="2.66" y1="1.18" x2="13.94" y2="8.55" xlink:href="#linear-gradient"/><linearGradient id="linear-gradient-4" x1="2.14" y1="1.98" x2="13.42" y2="9.35" xlink:href="#linear-gradient"/><linearGradient id="linear-gradient-5" x1="7.04" y1="8.15" x2="7.5" y2="8.15" xlink:href="#linear-gradient"/><linearGradient id="linear-gradient-6" x1="7.79" y1="8.15" x2="8.25" y2="8.15" xlink:href="#linear-gradient"/><linearGradient id="linear-gradient-7" x1="7.04" y1="8.84" x2="7.5" y2="8.84" xlink:href="#linear-gradient"/><linearGradient id="linear-gradient-8" x1="7.79" y1="8.84" x2="8.25" y2="8.84" xlink:href="#linear-gradient"/></defs><polygon class="cls-1" points="0.85 8.73 7.51 6.91 7.5 4.75 0.75 6.66 0.8 8.75 0.85 8.73"/><polygon class="cls-2" points="3.28 8.35 3.28 9.38 1.34 8.85 3.28 8.35"/><polygon class="cls-3" points="14.44 8.68 7.78 6.85 7.79 4.7 14.53 6.6 14.49 8.69 14.44 8.68"/><polygon class="cls-4" points="12.01 8.3 12.01 9.32 13.94 8.8 12.01 8.3"/><rect class="cls-5" x="7.04" y="7.92" width="0.46" height="0.46"/><rect class="cls-6" x="7.79" y="7.92" width="0.46" height="0.46"/><rect class="cls-7" x="7.04" y="8.61" width="0.46" height="0.46"/><rect class="cls-8" x="7.79" y="8.61" width="0.46" height="0.46"/></svg>